<?xml version="1.0" encoding="UTF-8" standalone="no"?>
<!-- Created with Inkscape (http://www.inkscape.org/) -->

<svg
   xmlns:dc="http://purl.org/dc/elements/1.1/"
   xmlns:cc="http://creativecommons.org/ns#"
   xmlns:rdf="http://www.w3.org/1999/02/22-rdf-syntax-ns#"
   xmlns:svg="http://www.w3.org/2000/svg"
   xmlns="http://www.w3.org/2000/svg"
   xmlns:xlink="http://www.w3.org/1999/xlink"
   xmlns:sodipodi="http://sodipodi.sourceforge.net/DTD/sodipodi-0.dtd"
   xmlns:inkscape="http://www.inkscape.org/namespaces/inkscape"
   width="600"
   height="400"
   id="svg5739"
   version="1.1"
   inkscape:version="0.48.1 r9760"
   sodipodi:docname="cloud7header.svg">
  <defs
     id="defs5741">
    <linearGradient
       inkscape:collect="always"
       xlink:href="#linearGradient5342"
       id="linearGradient5348"
       x1="350.84879"
       y1="673.62744"
       x2="356.70599"
       y2="636.04376"
       gradientUnits="userSpaceOnUse" />
    <linearGradient
       inkscape:collect="always"
       id="linearGradient5342">
      <stop
         style="stop-color:#ccff00;stop-opacity:1;"
         offset="0"
         id="stop5344" />
      <stop
         style="stop-color:#ffffff;stop-opacity:1"
         offset="1"
         id="stop5346" />
    </linearGradient>
    <linearGradient
       inkscape:collect="always"
       xlink:href="#linearGradient3648"
       id="linearGradient3654"
       x1="278.29703"
       y1="691.23267"
       x2="383.35291"
       y2="803.35956"
       gradientUnits="userSpaceOnUse"
       gradientTransform="translate(-0.50507627,-7.1787518)" />
    <linearGradient
       inkscape:collect="always"
       id="linearGradient3648">
      <stop
         style="stop-color:#000000;stop-opacity:1;"
         offset="0"
         id="stop3650" />
      <stop
         style="stop-color:#4d4d4d;stop-opacity:1"
         offset="1"
         id="stop3652" />
    </linearGradient>
    <linearGradient
       y2="803.35956"
       x2="383.35291"
       y1="691.23267"
       x1="278.29703"
       gradientTransform="matrix(2.4907672,0,0,2.4907672,-374.47088,-962.54589)"
       gradientUnits="userSpaceOnUse"
       id="linearGradient5737"
       xlink:href="#linearGradient3648"
       inkscape:collect="always" />
  </defs>
  <sodipodi:namedview
     id="base"
     pagecolor="#ffffff"
     bordercolor="#666666"
     borderopacity="1.0"
     inkscape:pageopacity="0.0"
     inkscape:pageshadow="2"
     inkscape:zoom="0.35"
     inkscape:cx="375"
     inkscape:cy="291.42857"
     inkscape:document-units="px"
     inkscape:current-layer="layer1"
     showgrid="false"
     inkscape:window-width="472"
     inkscape:window-height="428"
     inkscape:window-x="219"
     inkscape:window-y="213"
     inkscape:window-maximized="0" />
  <metadata
     id="metadata5744">
    <rdf:RDF>
      <cc:Work
         rdf:about="">
        <dc:format>image/svg+xml</dc:format>
        <dc:type
           rdf:resource="http://purl.org/dc/dcmitype/StillImage" />
        <dc:title></dc:title>
      </cc:Work>
    </rdf:RDF>
  </metadata>
  <g
     inkscape:label="Layer 1"
     inkscape:groupmode="layer"
     id="layer1"
     transform="translate(0,-652.36218)">
    <g
       id="g3711"
       transform="matrix(2.5572045,0,0,2.5572045,-321.9212,-1275.1554)">
      <path
         sodipodi:nodetypes="sssssscccccs"
         inkscape:connector-curvature="0"
         id="path3310-3-2-1"
         d="m 356.96112,835.11627 c 0,4.15281 -5.92816,16.7022 -12.12691,18.86518 -12.50144,4.36223 -44.93388,1.93405 -68.12964,1.93405 -18.64159,0 -36.27558,1.65876 -47.69835,-1.30968 -10.05685,-2.61348 -13.98679,-10.17042 -13.98679,-15.91812 0,-5.87077 14.45895,-46.8355 34.71931,-62.29509 8.66226,-6.6097 21.00368,-5.90716 28.64498,-2.4078 13.13106,-0.62154 15.86025,23.90366 19.39226,23.90366 5.97261,0 7.59722,-3.12487 17.21141,0.98127 7.5452,1.09742 10.19957,13.14068 10.51882,17.58868 19.71927,0.82254 6.91547,2.14671 19.59184,0.86662 7.64687,2.73102 11.86307,13.854 11.86307,17.79123 z"
         style="fill:#000000;fill-opacity:1;stroke:#000000;stroke-width:1.42762315" />
      <g
         id="flowRoot3068-8-3-5-7-2"
         style="font-size:72px;font-style:normal;font-weight:normal;line-height:125%;letter-spacing:0px;word-spacing:0px;fill:#000000;fill-opacity:1;stroke:#000000;font-family:Sans"
         transform="matrix(1.3606247,0,0,1.3606247,-184.70015,-59.482972)">
        <path
           id="path3526-9-5"
           d="m 331.1875,645.34016 33.75,0 0,3.02344 -19.05469,49.46484 -7.41797,0 17.92969,-46.51172 -25.20703,0 0,-5.97656"
           inkscape:connector-curvature="0" />
      </g>
      <g
         id="flowRoot3068-8-3-6-4-6-7"
         style="font-size:72px;font-style:normal;font-weight:normal;line-height:125%;letter-spacing:0px;word-spacing:0px;fill:#000000;fill-opacity:1;stroke:#000000;font-family:Sans"
         transform="matrix(1.3606247,0,0,1.3606247,-185.04603,-59.585772)">
        <path
           id="path3529-0-5"
           d="m 331.1875,645.34016 33.75,0 0,3.02344 -19.05469,49.46484 -7.41797,0 17.92969,-46.51172 -25.20703,0 0,-5.97656"
           inkscape:connector-curvature="0" />
      </g>
      <path
         sodipodi:nodetypes="cccssssscssssscsscscsccccsssscssssssssscssssscc"
         inkscape:connector-curvature="0"
         id="path3066-5-8-3-8-8"
         d="m 300.72022,856.39062 c 40.95835,-0.075 37.25166,-0.157 39.77669,-0.761 l 0,0 c 3.61325,-0.8643 8.2033,-3.69552 10.90413,-6.72578 4.18786,-4.69868 6.4086,-11.62907 5.47358,-17.08169 -0.2684,-1.56519 -0.97398,-3.80483 -1.56795,-4.97698 -1.42112,-2.80445 -5.50328,-7.01424 -7.90558,-8.15276 -4.31503,-2.04502 -6.35827,-2.24258 -19.36064,-1.87198 l -1.8106,0.0516 -1.08221,-4.11453 c -1.8142,-6.89755 -4.6586,-11.05853 -9.49774,-13.8939 -3.86688,-2.2657 -10.13055,-2.99548 -14.94564,-1.74131 -4.53193,1.18042 -4.44388,1.23521 -6.11635,-3.80594 -5.12844,-15.45817 -7.77649,-18.75069 -22.19942,-21.04371 -5.09794,-0.81049 -5.27436,-0.47512 -9.56473,0.28554 -8.25861,2.31146 -11.10118,4.37155 -16.14304,10.61726 -4.10782,5.08865 -6.29366,8.02465 -7.55582,14.89457 l -0.87687,4.7728 -7.55093,6.23648 c -6.09592,5.03475 -9.00721,13.10694 -10.91594,20.80167 0.0965,12.09608 -2.77468,23.18907 9.80339,25.52176 4.69896,0.8714 12.33793,1.0708 57.29639,0.9879 l -0.44828,0.8368 c -26.47699,0.04 -46.45648,-0.077 -49.69151,-0.2587 l 0,0 c -8.82254,-0.4969 -10.8824,-1.0705 -15.51367,-4.3199 -5.50025,-3.85909 -10.30613,-11.68281 -11.95496,-19.46206 -1.34661,-6.3534 -0.30019,-13.65078 2.8099,-19.59529 1.68785,-3.22607 7.0404,-8.55519 10.79087,-10.74364 l 2.88017,-1.68062 0.1135,-2.02246 c 0.68652,-12.23298 8.02926,-22.55724 19.84197,-27.89881 8.34342,-3.77281 20.61626,-4.1095 30.38733,-0.83367 9.74652,3.26762 15.07881,9.56311 19.57401,23.10981 0.61952,1.86697 1.28731,3.39449 1.48398,3.39449 0.19668,0 1.42387,-0.27773 2.7271,-0.61718 3.14725,-0.81976 9.25892,-0.79683 12.09968,0.0454 3.42069,1.01415 5.2816,2.11166 7.98962,4.71203 2.96714,2.8492 4.75281,6.15069 6.10596,11.28924 0.53633,2.03669 1.1421,3.69939 1.34616,3.69489 0.20405,-0.004 2.68543,-0.1495 5.51417,-0.32224 10.74215,-0.65595 16.75112,1.5129 21.50134,7.76063 3.23015,4.24845 4.35808,10.25073 2.98969,15.9096 -0.87976,3.63815 -1.79055,5.52586 -4.22343,8.75352 -3.03654,4.02852 -7.18515,6.93576 -11.83282,8.29206 -2.28276,0.6661 3.36946,0.7258 -41.14441,0.7929 z"
         style="fill:#000000;stroke:#000000;stroke-width:0.41145289" />
      <g
         id="flowRoot3365-2-2-7"
         style="font-size:72px;font-style:normal;font-weight:normal;line-height:125%;letter-spacing:0px;word-spacing:0px;fill:#d4ff2a;fill-opacity:1;stroke:#000000;font-family:Sans"
         transform="matrix(1.4633996,0,0,1.4633996,-221.88955,-126.60781)">
        <path
           id="path3532-3-1"
           style="fill:#ccff00"
           d="m 331.1875,645.34016 33.75,0 0,3.02344 -19.05469,49.46484 -7.41797,0 17.92969,-46.51172 -25.20703,0 0,-5.97656"
           inkscape:connector-curvature="0" />
      </g>
    </g>
    <text
       xml:space="preserve"
       style="font-size:102.28818512px;font-style:normal;font-weight:bold;line-height:125%;letter-spacing:0px;word-spacing:0px;fill:#000000;fill-opacity:1;stroke:none;font-family:Sans;-inkscape-font-specification:Sans Bold"
       x="3.6808047"
       y="1011.3554"
       id="text5350-0"
       sodipodi:linespacing="125%"><tspan
         sodipodi:role="line"
         id="tspan5352-1"
         x="3.6808047"
         y="1011.3554"><tspan
   style="font-size:143.20344543px"
   id="tspan5354-1">C</tspan>loud</tspan></text>
  </g>
</svg>
